# xmcd
# 
# Track frame offsets:
#     183
#     18398
#     36408
#     57878
# 
# Disc length: 1073
# 
# Revision: 7
# Processed by: cddbd v1.5.2PL0 Copyright (c) Steve Scherf et al.
# Submitted via: fre:ac v1.0.31
# 
DISCID=2d042f04
DTITLE=All Saints - I Know Where It's At
DYEAR=1997
DGENRE=R&B
TTITLE0=I Know Where It's At [Cutfather and Jo's Alternative Mix Radio]
TTITLE1=I Know Where It's At [Original Radio Mix]
TTITLE2=I Know Where It's At [Cutfather and Jo's Alternative Mix]
TTITLE3=I Know Where it's at [Original Mix]
EXTD=
EXTT0=
EXTT1=
EXTT2=
EXTT3=
PLAYORDER=
